HIERARCHY
ROOT Hips
{
	OFFSET 0.000000 88.474243 0.000000
	CHANNELS 6 Xposition Yposition Zposition Zrotation Yrotation Xrotation 
	JOINT Hips_Spine
	{
		OFFSET 0.000000 0.000000 0.000000
		CHANNELS 3 Zrotation Yrotation Xrotation
		JOINT Spine
		{
			OFFSET 0.005100 8.711998 -0.691000
			CHANNELS 3 Zrotation Yrotation Xrotation
			JOINT Spine1
			{
				OFFSET -0.009200 8.660301 -1.275000
				CHANNELS 3 Zrotation Yrotation Xrotation
				JOINT Spine2
				{
					OFFSET 0.006300 9.852501 -1.857000
					CHANNELS 3 Zrotation Yrotation Xrotation
					JOINT Spine2_Neck
					{
						OFFSET 0.000000 0.000000 0.000000
						CHANNELS 3 Zrotation Yrotation Xrotation
						JOINT Neck
						{
							OFFSET 0.016300 11.420799 -0.263300
							CHANNELS 3 Zrotation Yrotation Xrotation
							End Site #name: Head
							{
								OFFSET -0.019200 9.262405 2.362500
							}
						}
					}
					JOINT Spine2_LeftShoulder
					{
						OFFSET 0.000000 0.000000 0.000000
						CHANNELS 3 Zrotation Yrotation Xrotation
						JOINT LeftShoulder
						{
							OFFSET 5.616900 6.732201 -0.345700
							CHANNELS 3 Zrotation Yrotation Xrotation
							JOINT LeftArm
							{
								OFFSET 10.664888 -0.183372 -2.440700
								CHANNELS 3 Zrotation Yrotation Xrotation
								JOINT LeftForeArm
								{
									OFFSET 27.459126 0.000000 0.000000
									CHANNELS 3 Zrotation Yrotation Xrotation
									End Site #name: LeftHand
									{
										OFFSET 21.306858 0.000000 0.000000
									}
								}
							}
						}
					}
					JOINT Spine2_RightShoulder
					{
						OFFSET 0.000000 0.000000 0.000000
						CHANNELS 3 Zrotation Yrotation Xrotation
						JOINT RightShoulder
						{
							OFFSET -5.580300 6.737503 -0.344400
							CHANNELS 3 Zrotation Yrotation Xrotation
							JOINT RightArm
							{
								OFFSET -10.679335 -0.188484 -2.383900
								CHANNELS 3 Zrotation Yrotation Xrotation
								JOINT RightForeArm
								{
									OFFSET -27.503529 0.000000 0.000000
									CHANNELS 3 Zrotation Yrotation Xrotation
									End Site #name: RightHand
									{
										OFFSET -21.306808 0.000000 0.000000
									}
								}
							}
						}
					}
				}
			}
		}
	}
	JOINT Hips_LeftUpLeg
	{
		OFFSET 0.000000 0.000000 0.000000
		CHANNELS 3 Zrotation Yrotation Xrotation
		JOINT LeftUpLeg
		{
			OFFSET 6.857700 -6.739601 0.312100
			CHANNELS 3 Zrotation Yrotation Xrotation
			JOINT LeftLeg
			{
				OFFSET -0.367590 -34.731552 -4.572400
				CHANNELS 3 Zrotation Yrotation Xrotation
				End Site #name: LeftFoot
				{
					OFFSET 0.367590 -34.656704 -6.067400
				}
			}
		}
	}
	JOINT Hips_RightUpLeg
	{
		OFFSET 0.000000 0.000000 0.000000
		CHANNELS 3 Zrotation Yrotation Xrotation
		JOINT RightUpLeg
		{
			OFFSET -6.876100 -6.733299 0.301000
			CHANNELS 3 Zrotation Yrotation Xrotation
			JOINT RightLeg
			{
				OFFSET 0.347353 -34.795158 -4.515900
				CHANNELS 3 Zrotation Yrotation Xrotation
				End Site #name: RightFoot
				{
					OFFSET -0.347353 -34.589367 -6.070300
				}
			}
		}
	}
}
MOTION
Frames: 10
Frame Time: 0.041667
1.308259 -0.084998 -5.241753 174.996721 -33.963718 -178.587112 0.000000 -0.000000 0.000000 -4.889375 1.466141 4.232785 -0.334507 -1.424731 2.005316 0.000000 0.000000 0.000000 0.091357 -1.234678 2.843212 -0.410573 -25.671719 0.415540 -0.598194 -0.978878 0.135523 2.730496 -9.457590 0.336961 -83.354311 -22.094190 12.650600 9.516829 -26.326732 4.914454 -0.344017 -1.968612 0.340756 15.844123 12.546381 2.848223 56.625139 17.175546 9.584568 -0.737524 48.316928 4.020682 0.000000 0.000000 -0.000000 -2.151856 12.809768 -5.618406 1.018139 -38.606169 -18.869006 0.000000 0.000000 -0.000000 -4.321775 -60.737865 -14.794175 -13.212190 -8.711706 22.554159 
1.338321 -0.057637 -5.368555 175.079381 -34.977733 -178.634117 0.000000 -0.000000 0.000000 -5.142598 1.388857 4.387454 -0.385307 -1.372256 1.950340 0.000000 0.000000 0.000000 0.038225 -1.204526 2.776090 -0.423369 -25.092877 -0.002440 -0.625879 -0.938732 0.131184 2.754240 -10.026778 0.475188 -83.138638 -22.427387 12.977113 9.150861 -26.403599 4.607546 -0.380674 -1.925948 0.266603 15.515132 12.612992 2.769331 56.662469 17.053294 10.305570 -1.043389 48.524693 3.568214 0.000000 0.000000 -0.000000 -2.137517 12.690302 -6.037166 0.784694 -38.408593 -18.241337 0.000000 0.000000 -0.000000 -4.075639 -59.760340 -14.981421 -12.528017 -7.951939 22.230896 
1.376948 -0.029674 -5.486142 175.130807 -36.141128 -178.645341 0.000000 -0.000000 0.000000 -5.416412 1.344960 4.554648 -0.445798 -1.303384 1.896701 0.000000 0.000000 0.000000 -0.020680 -1.164887 2.707854 -0.454733 -24.392210 -0.532492 -0.654389 -0.892683 0.124516 2.734664 -10.450995 0.614764 -82.837193 -22.702756 13.205437 8.765060 -26.706669 4.258217 -0.421391 -1.868140 0.195056 15.180470 12.784793 2.696437 56.685723 16.976197 10.969340 -1.288568 48.902640 3.319634 0.000000 0.000000 -0.000000 -2.125129 12.565956 -6.507550 0.530400 -38.213743 -17.537468 0.000000 0.000000 -0.000000 -3.856571 -58.864985 -15.164097 -11.815045 -7.113259 21.896177 
1.424203 -0.002064 -5.595674 175.129753 -37.482942 -178.615526 0.000000 -0.000000 0.000000 -5.703324 1.338265 4.727788 -0.513706 -1.224407 1.848033 0.000000 0.000000 0.000000 -0.084656 -1.134681 2.630110 -0.502237 -23.606557 -1.136439 -0.684220 -0.841951 0.119131 2.710905 -10.898456 0.767358 -82.428875 -22.936460 13.250315 8.351286 -27.220108 3.861324 -0.466319 -1.802534 0.126333 14.865778 13.022652 2.627892 56.697280 16.942667 11.555281 -1.476114 49.342826 3.135749 0.000000 0.000000 -0.000000 -2.128150 12.418150 -7.063905 0.255295 -38.026541 -16.765121 0.000000 0.000000 -0.000000 -3.662322 -58.066138 -15.376726 -11.173290 -6.330970 21.633233 
1.479943 0.024902 -5.698363 175.029810 -39.053959 -178.526676 0.000000 -0.000000 0.000000 -5.997618 1.364840 4.918840 -0.585289 -1.158252 1.800494 0.000000 0.000000 0.000000 -0.153945 -1.099648 2.558498 -0.760212 -22.768620 -1.704961 -0.716564 -0.785052 0.118310 2.695838 -11.305442 0.892691 -81.935632 -23.100273 13.126895 7.953585 -28.026308 3.446931 -0.511655 -1.733827 0.065923 14.580929 13.273528 2.600436 56.691306 16.990383 11.946688 -1.599577 49.835306 3.014496 0.000000 0.000000 -0.000000 -2.148562 12.236183 -7.716285 -0.043302 -37.831921 -15.914929 0.000000 0.000000 -0.000000 -3.455957 -57.298358 -15.672316 -10.633465 -5.625586 21.480911 
1.542547 0.052554 -5.795137 174.866120 -41.003927 -178.374904 0.000000 -0.000000 0.000000 -6.299692 1.416880 5.121730 -0.658365 -1.108048 1.752014 0.000000 0.000000 0.000000 -0.221234 -1.066444 2.496023 -0.949803 -21.863482 -2.232384 -0.749409 -0.728900 0.124638 2.732980 -11.562650 0.914217 -81.536256 -23.300612 13.168029 7.600022 -29.118337 3.052784 -0.558871 -1.668601 0.012353 14.295476 13.460663 2.602824 56.685275 17.134636 12.104869 -1.674765 50.342237 2.923499 0.000000 0.000000 -0.000000 -2.227886 12.022421 -8.472733 -0.362513 -37.630503 -14.999086 0.000000 0.000000 -0.000000 -3.289680 -56.603531 -15.966426 -10.154387 -4.991176 21.390506 
1.609352 0.079869 -5.886443 174.649962 -43.051557 -178.176690 0.000000 -0.000000 0.000000 -6.560717 1.479616 5.293022 -0.719876 -1.072132 1.707094 0.000000 0.000000 0.000000 -0.283759 -1.041148 2.457642 -1.105070 -20.922379 -2.755741 -0.782838 -0.681451 0.141342 2.765259 -11.793863 0.934627 -81.164224 -23.500689 13.306774 7.300870 -30.440769 2.684090 -0.605235 -1.611993 -0.025275 14.001680 13.607371 2.647540 56.673162 17.394107 12.015441 -1.694290 50.908585 2.862610 0.000000 0.000000 -0.000000 -2.342951 11.775672 -9.316804 -0.707191 -37.399155 -14.003018 0.000000 0.000000 -0.000000 -3.145508 -55.999832 -16.230040 -9.671154 -4.316068 21.364209 
1.679364 0.105389 -5.973301 174.370607 -44.984013 -177.929032 0.000000 -0.000000 0.000000 -6.774181 1.537471 5.397279 -0.769990 -1.047290 1.675839 0.000000 0.000000 0.000000 -0.338988 -1.025767 2.432392 -1.209585 -19.965167 -3.184312 -0.815648 -0.644195 0.161607 2.792390 -12.010948 0.957511 -80.743437 -23.680611 13.442546 7.053870 -31.884174 2.321821 -0.645387 -1.566747 -0.046912 13.626173 13.746904 2.654675 56.649723 17.768656 11.656655 -1.713777 51.611828 2.783072 0.000000 0.000000 -0.000000 -2.485481 11.515509 -10.243625 -1.074306 -37.179226 -12.933128 0.000000 0.000000 -0.000000 -3.038945 -55.652488 -16.434730 -9.198999 -3.641234 21.388786 
1.752400 0.126699 -6.056615 173.993149 -46.946466 -177.608644 0.000000 -0.000000 0.000000 -7.005063 1.576710 5.512128 -0.821011 -1.026959 1.646928 0.000000 0.000000 0.000000 -0.387849 -1.017586 2.405055 -1.351619 -19.009169 -3.618239 -0.847307 -0.616127 0.183376 2.818488 -12.211740 0.982019 -80.311309 -23.870900 13.575326 6.900059 -33.732207 1.971018 -0.689509 -1.537040 -0.071973 13.256074 13.967574 2.659776 56.720392 18.269015 11.156517 -1.762202 52.517320 2.660814 0.000000 0.000000 -0.000000 -2.681933 11.229638 -11.252281 -1.451742 -36.950804 -11.822839 0.000000 0.000000 -0.000000 -2.958776 -55.654953 -16.582592 -8.694507 -2.842563 21.462176 
1.825147 0.143531 -6.138008 173.500032 -48.924453 -177.206814 0.000000 -0.000000 0.000000 -7.260255 1.629859 5.654396 -0.869547 -1.010647 1.622344 0.000000 0.000000 0.000000 -0.437322 -1.008410 2.385916 -1.535743 -18.059210 -4.026184 -0.882071 -0.595015 0.211093 2.847200 -12.402490 1.005330 -79.851278 -24.092245 13.735330 6.886142 -36.813171 1.589241 -0.738712 -1.522665 -0.095025 12.903164 14.292042 2.667692 56.757359 18.759029 10.480817 -1.876851 53.643948 2.463095 0.000000 0.000000 -0.000000 -2.969280 10.907232 -12.341342 -1.863150 -36.703895 -10.662050 0.000000 0.000000 -0.000000 -2.925275 -56.131998 -16.609585 -8.031484 -1.892475 21.469068 
